<?xml version="1.0" encoding="UTF-8"?>
<svg version="1.1" xmlns="http://www.w3.org/2000/svg" width="495" height="344">
<path d="M0 0 C163.35 0 326.7 0 495 0 C495 113.52 495 227.04 495 344 C331.65 344 168.3 344 0 344 C0 230.48 0 116.96 0 0 Z " fill="#FEFEFE" transform="translate(0,0)"/>
<path d="M0 0 C5.0304715 4.19335143 9.86041788 8.52968947 14.53515625 13.11328125 C15.00985352 13.57718262 15.48455078 14.04108398 15.97363281 14.51904297 C39.2571111 37.6335672 50.57391774 69.45092031 50.84765625 101.80078125 C50.69547129 138.66365314 36.8485921 170.43484107 10.70288086 196.3659668 C-14.51800977 220.65985759 -47.88181333 231.89446679 -82.60424805 231.51586914 C-116.85426832 230.56694385 -148.68648498 214.05035348 -172.22265625 189.6640625 C-181.51460629 179.70603275 -188.63691891 168.37743285 -194.46484375 156.11328125 C-195.00882813 154.99179688 -195.5528125 153.8703125 -196.11328125 152.71484375 C-207.05952404 127.98855927 -209.49934836 97.24694769 -202.46484375 71.11328125 C-202.27680176 70.40623047 -202.08875977 69.69917969 -201.89501953 68.97070312 C-195.78665092 46.9086558 -184.05010795 28.68716295 -168.46484375 12.11328125 C-167.93890625 11.52289063 -167.41296875 10.9325 -166.87109375 10.32421875 C-153.13416664 -4.4640038 -133.52435134 -14.89830273 -114.46484375 -20.88671875 C-113.83578125 -21.09699707 -113.20671875 -21.30727539 -112.55859375 -21.52392578 C-75.77274236 -33.42467637 -30.13489484 -23.24159587 0 0 Z " fill="#B17AE4" transform="translate(324.46484375,68.88671875)"/>
<path d="M0 0 C3.61354375 5.42031562 3.1489496 11.4885411 3.1328125 17.79296875 C3.13376923 18.62081375 3.13472595 19.44865875 3.13571167 20.30158997 C3.13638921 22.04212521 3.13456475 23.78266304 3.13037109 25.52319336 C3.12499628 28.18934768 3.13034099 30.85533511 3.13671875 33.52148438 C3.13605829 35.2161462 3.1347778 36.91080793 3.1328125 38.60546875 C3.13483673 39.40236618 3.13686096 40.19926361 3.13894653 41.02030945 C3.12511473 44.2727066 3.03584539 46.89246382 2 50 C2.30248631 51.67254026 2.63930339 53.33904038 3 55 C3.09659596 56.72673151 3.14775758 58.45641148 3.16113281 60.18579102 C3.17074036 61.19356094 3.1803479 62.20133087 3.19024658 63.23963928 C3.19449646 64.31684738 3.19874634 65.39405548 3.203125 66.50390625 C3.20882507 67.61934311 3.21452515 68.73477997 3.22039795 69.88401794 C3.22982938 72.23834285 3.23637454 74.59268085 3.24023438 76.94702148 C3.24997381 80.55280325 3.28102894 84.15802296 3.3125 87.76367188 C3.31902713 90.05207995 3.32427873 92.3404921 3.328125 94.62890625 C3.3404718 95.70813858 3.3528186 96.78737091 3.36553955 97.89930725 C3.36253845 98.90392502 3.35953735 99.90854279 3.35644531 100.94360352 C3.36191376 102.26667259 3.36191376 102.26667259 3.36749268 103.61647034 C2.9213887 106.50986695 2.00020294 107.88946431 0 110 C-2.26171875 110.390625 -2.26171875 110.390625 -4.6875 110.25 C-5.49574219 110.21390625 -6.30398437 110.1778125 -7.13671875 110.140625 C-7.75160156 110.09421875 -8.36648437 110.0478125 -9 110 C-10.25664978 107.09399739 -11 105.20395416 -11 102 C-10.34 102 -9.68 102 -9 102 C-9 72.96 -9 43.92 -9 14 C-11.38653882 33.62145991 -11.38653882 33.62145991 -12.75390625 53.13671875 C-13.03130235 57.49139728 -13.72337605 61.65172132 -14.52734375 65.93359375 C-15.31088558 71.01690234 -15.50610217 76.13942088 -15.78515625 81.26953125 C-16.4556213 92.9112426 -16.4556213 92.9112426 -18 96 C-17.95875 97.0725 -17.9175 98.145 -17.875 99.25 C-18.01167272 103.35018169 -19.08019298 105.44182364 -21 109 C-23.45840605 109.02691685 -25.91651882 109.04679802 -28.375 109.0625 C-29.07367188 109.07087891 -29.77234375 109.07925781 -30.4921875 109.08789062 C-35.7734375 109.11328125 -35.7734375 109.11328125 -38 108 C-38.50244141 106.08569336 -38.50244141 106.08569336 -38.8515625 103.58984375 C-39.04492188 102.22762695 -39.04492188 102.22762695 -39.2421875 100.83789062 C-39.43167969 99.40219727 -39.43167969 99.40219727 -39.625 97.9375 C-39.7590625 97.00744141 -39.893125 96.07738281 -40.03125 95.11914062 C-40.61362133 90.89100592 -41.07623443 86.77556929 -41.0234375 82.50390625 C-40.81179848 79.02699413 -40.81179848 79.02699413 -42 76 C-42.7642585 71.12785206 -43.10772572 66.29819229 -43.375 61.375 C-43.89872197 51.76905621 -44.95453308 42.21032249 -45.98388672 32.64794922 C-46.67482568 26.05541789 -47.16589831 19.62871953 -47 13 C-48.51382165 16.0276433 -48.12984253 19.15901553 -48.11352539 22.47900391 C-48.11367142 23.24982803 -48.11381744 24.02065216 -48.1139679 24.81483459 C-48.11326989 27.36877229 -48.10548275 29.92263751 -48.09765625 32.4765625 C-48.09579167 34.24490316 -48.09436796 36.01324433 -48.09336853 37.78158569 C-48.0895465 42.44064759 -48.07971888 47.09967842 -48.06866455 51.75872803 C-48.05844369 56.51102274 -48.05386946 61.26332247 -48.04882812 66.015625 C-48.03809634 75.34376367 -48.02102367 84.67187925 -48 94 C-47.34 94.33 -46.68 94.66 -46 95 C-46.66 95.99 -47.32 96.98 -48 98 C-47.34 98 -46.68 98 -46 98 C-45.94600264 99.45792884 -45.90720823 100.91642712 -45.875 102.375 C-45.85179687 103.18710938 -45.82859375 103.99921875 -45.8046875 104.8359375 C-46 107 -46 107 -48 109 C-51.3 109 -54.6 109 -58 109 C-58 73.69 -58 38.38 -58 2 C-52.06 2 -46.12 2 -40 2 C-39.82871582 3.39758545 -39.65743164 4.7951709 -39.48095703 6.23510742 C-38.84293007 11.42623432 -38.19599796 16.6162193 -37.54638672 21.8059082 C-37.26661528 24.05104972 -36.98925111 26.2964926 -36.71435547 28.54223633 C-36.31852468 31.77247278 -35.91401412 35.00152211 -35.5078125 38.23046875 C-35.3868924 39.23272995 -35.26597229 40.23499115 -35.14138794 41.2676239 C-35.02141449 42.20822159 -34.90144104 43.14881927 -34.77783203 44.11791992 C-34.6756839 44.94176682 -34.57353577 45.76561371 -34.46829224 46.61442566 C-34.06220075 49.08050134 -34.06220075 49.08050134 -32.95529175 51.58638 C-31.68698835 54.79084863 -31.93884853 57.57551758 -32 61 C-31.84660156 61.69996094 -31.69320312 62.39992188 -31.53515625 63.12109375 C-30.76745071 67.25101334 -30.67158855 71.37089259 -30.5 75.5625 C-30.16250657 83.05962678 -29.71382576 90.52761119 -29 98 C-27.71472952 95.42945904 -27.68553584 93.30349632 -27.46484375 90.43359375 C-27.37783203 89.30759766 -27.29082031 88.18160156 -27.20117188 87.02148438 C-27.11416016 85.83876953 -27.02714844 84.65605469 -26.9375 83.4375 C-26.84662109 82.28185547 -26.75574219 81.12621094 -26.66210938 79.93554688 C-26.18371577 73.60132782 -25.90327807 67.35140656 -26 61 C-26 58.40811129 -25.80455884 56.00510025 -25.5 53.4375 C-25.24341541 51.267222 -25 49.18528703 -25 47 C-24.34 47 -23.68 47 -23 47 C-23.08378906 46.31292969 -23.16757813 45.62585938 -23.25390625 44.91796875 C-23.40666016 43.56638672 -23.40666016 43.56638672 -23.5625 42.1875 C-23.66691406 41.29417969 -23.77132812 40.40085938 -23.87890625 39.48046875 C-24 37 -24 37 -23 34 C-23 32.68 -23 31.36 -23 30 C-23 24 -23 24 -21 22 C-21.14953125 21.45214844 -21.2990625 20.90429688 -21.453125 20.33984375 C-22.16142711 17.30932258 -21.96514261 14.66413925 -21.75 11.5625 C-21.68296875 10.45003906 -21.6159375 9.33757812 -21.546875 8.19140625 C-20.95260448 4.7234133 -20.19655786 2.74201183 -18 0 C-11.98788236 -2.72307282 -6.03039593 -2.26139848 0 0 Z " fill="#FCFAFD" transform="translate(251,113)"/>
<path d="M0 0 C5.69961804 0.37997454 11.25259758 1.01926067 15.65234375 4.94921875 C21.57956551 12.32563899 22.09617902 20.43548606 22.0625 29.5625 C22.07861328 30.45517578 22.09472656 31.34785156 22.11132812 32.26757812 C22.11197266 33.12416016 22.11261719 33.98074219 22.11328125 34.86328125 C22.11626221 35.63454346 22.11924316 36.40580566 22.12231445 37.20043945 C21.65276778 39.78525538 20.81117963 40.66640323 18.75 42.25 C16.33984375 42.6484375 16.33984375 42.6484375 13.6875 42.625 C12.37072266 42.63660156 12.37072266 42.63660156 11.02734375 42.6484375 C10.27582031 42.51695312 9.52429688 42.38546875 8.75 42.25 C6.75 39.25 6.75 39.25 7.109375 37.0703125 C7.32078125 36.13960937 7.5321875 35.20890625 7.75 34.25 C7.89241424 31.52769708 7.98016717 28.84705579 8 26.125 C8.020625 25.40957031 8.04125 24.69414062 8.0625 23.95703125 C8.10157595 19.89570704 8.10157595 19.89570704 6.45703125 16.27734375 C3.59904727 14.55732135 0.98259931 14.95612734 -2.25 15.25 C-5.18537282 18.18537282 -5.19080849 21.00001458 -5.3828125 25.0546875 C-5.36133979 33.49346147 -4.90142389 41.83965222 -4.25 50.25 C-3.45335937 50.43175781 -2.65671875 50.61351562 -1.8359375 50.80078125 C14.50780133 54.67794557 14.50780133 54.67794557 17.8828125 60.0546875 C18.37394531 61.07949219 18.37394531 61.07949219 18.875 62.125 C19.20757812 62.80304688 19.54015625 63.48109375 19.8828125 64.1796875 C22.14606229 69.58294151 22.11405459 75.09582665 22.375 80.875 C22.4265625 81.82246094 22.478125 82.76992187 22.53125 83.74609375 C22.99310927 93.67606801 23.28713842 102.25400865 16.75 110.25 C11.02587171 116.12476324 3.90905698 115.3628755 -3.796875 115.578125 C-6.75906684 115.18190826 -7.42595699 114.5587173 -9.25 112.25 C-10.02730469 111.30833984 -10.02730469 111.30833984 -10.8203125 110.34765625 C-11.33335937 109.67605469 -11.84640625 109.00445312 -12.375 108.3125 C-13.15230469 107.30896484 -13.15230469 107.30896484 -13.9453125 106.28515625 C-15.25571819 104.24108031 -15.81487048 102.62198651 -16.25 100.25 C-16.91 100.25 -17.57 100.25 -18.25 100.25 C-18.24476318 99.65461426 -18.23952637 99.05922852 -18.23413086 98.44580078 C-18.21338001 95.75554453 -18.20034593 93.06530511 -18.1875 90.375 C-18.17912109 89.43785156 -18.17074219 88.50070313 -18.16210938 87.53515625 C-18.15888672 86.63925781 -18.15566406 85.74335938 -18.15234375 84.8203125 C-18.14710693 83.99289551 -18.14187012 83.16547852 -18.13647461 82.31298828 C-18.11647862 80.18588243 -18.11647862 80.18588243 -19.25 78.25 C-18.59 78.25 -17.93 78.25 -17.25 78.25 C-17.25 76.27 -17.25 74.29 -17.25 72.25 C-13.58694766 71.50073929 -10.82644848 71.0119986 -7.25 72.25 C-5.90876309 76.24227549 -6.17618182 80.28522742 -6.25 84.4375 C-6.29567784 87.04798858 -6.29722011 89.63813791 -6.25 92.25 C-5.92 92.58 -5.59 92.91 -5.25 93.25 C-4.91666667 95.58333333 -4.58333333 97.91666667 -4.25 100.25 C-3.14471558 101.56968178 -3.14471558 101.56968178 -0.375 101.5 C2.71169576 101.53555314 2.71169576 101.53555314 4.5625 99.875 C6.8500999 96.74460014 6.83119537 94.76890646 6.75 90.9375 C6.68836139 85.25989931 7.06830288 79.71005984 7.62890625 74.0625 C7.83017045 70.52210182 7.83017045 70.52210182 6.75 67.25 C4.38590297 65.91669324 4.38590297 65.91669324 1.5 65.0625 C0.54609375 64.73894531 -0.4078125 64.41539062 -1.390625 64.08203125 C-4.19040638 63.20097177 -4.19040638 63.20097177 -6.91015625 62.8359375 C-10.99800813 61.81226842 -12.97089766 58.62721528 -15.25 55.25 C-16.5625 52 -16.5625 52 -17.25 49.25 C-17.745 47.765 -17.745 47.765 -18.25 46.25 C-18.32208181 43.98933418 -18.33386071 41.72655758 -18.3125 39.46484375 C-18.30871338 38.80795059 -18.30492676 38.15105743 -18.30102539 37.47425842 C-18.2888219 35.37860529 -18.2701892 33.28309051 -18.25 31.1875 C-18.22346024 28.42578501 -18.20344342 25.66413794 -18.1875 22.90234375 C-18.17589844 21.67507568 -18.16429687 20.44780762 -18.15234375 19.18334961 C-18.04364012 16.31504856 -18.04364012 16.31504856 -19.25 14.25 C-17.41349725 8.28136607 -14.54810981 4.60811671 -9.25 1.25 C-6.08773329 0.32767221 -3.2760483 0.25200372 0 0 Z " fill="#FDFBFE" transform="translate(282.25,110.75)"/>
<path d="M0 0 C5.69961804 0.37997454 11.25259758 1.01926067 15.65234375 4.94921875 C21.57956551 12.32563899 22.09617902 20.43548606 22.0625 29.5625 C22.07861328 30.45517578 22.09472656 31.34785156 22.11132812 32.26757812 C22.11197266 33.12416016 22.11261719 33.98074219 22.11328125 34.86328125 C22.11626221 35.63454346 22.11924316 36.40580566 22.12231445 37.20043945 C21.65276778 39.78525538 20.81117963 40.66640323 18.75 42.25 C16.33984375 42.6484375 16.33984375 42.6484375 13.6875 42.625 C12.37072266 42.63660156 12.37072266 42.63660156 11.02734375 42.6484375 C10.27582031 42.51695312 9.52429688 42.38546875 8.75 42.25 C6.75 39.25 6.75 39.25 7.109375 37.0703125 C7.32078125 36.13960937 7.5321875 35.20890625 7.75 34.25 C7.89241424 31.52769708 7.98016717 28.84705579 8 26.125 C8.020625 25.40957031 8.04125 24.69414062 8.0625 23.95703125 C8.10157595 19.89570704 8.10157595 19.89570704 6.45703125 16.27734375 C3.59904727 14.55732135 0.98259931 14.95612734 -2.25 15.25 C-5.18537282 18.18537282 -5.19080849 21.00001458 -5.3828125 25.0546875 C-5.36133979 33.49346147 -4.90142389 41.83965222 -4.25 50.25 C-3.45335937 50.43175781 -2.65671875 50.61351562 -1.8359375 50.80078125 C14.50780133 54.67794557 14.50780133 54.67794557 17.8828125 60.0546875 C18.37394531 61.07949219 18.37394531 61.07949219 18.875 62.125 C19.20757812 62.80304688 19.54015625 63.48109375 19.8828125 64.1796875 C22.14606229 69.58294151 22.11405459 75.09582665 22.375 80.875 C22.4265625 81.82246094 22.478125 82.76992187 22.53125 83.74609375 C22.99310927 93.67606801 23.28713842 102.25400865 16.75 110.25 C11.02587171 116.12476324 3.90905698 115.3628755 -3.796875 115.578125 C-6.65511397 115.19581278 -7.49429145 114.47389749 -9.25 112.25 C-5.71970096 111.13063689 -2.55642809 111.24627874 1.125 111.375 C6.10116268 111.40289329 9.65639868 111.37406417 13.75 108.25 C18.65732997 101.65048728 17.99889048 94.54969309 18.04516602 86.62524414 C18.05664767 85.25892753 18.07703916 83.89265443 18.10668945 82.52661133 C18.30224301 73.50165095 18.43473034 65.18286224 11.90625 58.30859375 C8.06172711 56.42115588 3.96833803 55.50279368 -0.15625 54.41015625 C-3.49894273 53.15664648 -5.06611531 52.04681459 -7.25 49.25 C-9.15505624 43.60224585 -8.55957836 37.25700026 -8.625 31.375 C-8.66238281 30.10785156 -8.69976562 28.84070313 -8.73828125 27.53515625 C-8.83702288 17.10145686 -8.83702288 17.10145686 -5.9453125 13.40625 C-3.25 11.25 -3.25 11.25 0.25 10.625 C4.22245401 11.33436679 5.92231707 12.42231707 8.75 15.25 C10.05475618 17.85951236 9.86301572 19.77701285 9.84765625 22.6953125 C9.84443359 23.77167969 9.84121094 24.84804687 9.83789062 25.95703125 C9.82951172 27.08496094 9.82113281 28.21289062 9.8125 29.375 C9.80798828 30.51066406 9.80347656 31.64632812 9.79882812 32.81640625 C9.78701615 35.62765638 9.77054507 38.4388023 9.75 41.25 C12.39 41.25 15.03 41.25 17.75 41.25 C17.66867005 37.06173209 17.55586305 32.87487207 17.4375 28.6875 C17.40366211 26.91536133 17.40366211 26.91536133 17.36914062 25.10742188 C17.13778473 16.24672979 17.13778473 16.24672979 13.75 8.25 C9.66994656 4.63560483 5.44090988 4.76319084 0.25 4.8125 C-0.49636719 4.79251953 -1.24273437 4.77253906 -2.01171875 4.75195312 C-5.84981222 4.75534967 -7.82633061 4.98967302 -11.16796875 7.04296875 C-13.06713839 9.05615983 -14.12485533 10.43381459 -15.0625 13 C-15.454375 14.0725 -15.84625 15.145 -16.25 16.25 C-17.24 15.92 -18.23 15.59 -19.25 15.25 C-17.35430136 8.78232229 -15.08384248 4.83525223 -9.25 1.25 C-6.08773329 0.32767221 -3.2760483 0.25200372 0 0 Z " fill="#E5BAEA" transform="translate(282.25,110.75)"/>
<path d="M0 0 C1.7015625 -0.3403125 1.7015625 -0.3403125 3.4375 -0.6875 C7 -1 7 -1 9.375 0.5625 C11.27337672 3.41006509 11.69255622 5.61811839 12 9 C12.33 9 12.66 9 13 9 C14.51127162 22.66013472 15.47604406 36.26683911 16 50 C15.34 50 14.68 50 14 50 C13.28132723 44.59313425 12.56948594 39.1854276 11.86376953 33.77685547 C11.62310104 31.93969883 11.38061626 30.10277913 11.13623047 28.26611328 C10.78387299 25.61552216 10.43820659 22.96412805 10.09375 20.3125 C9.9843811 19.50071289 9.87501221 18.68892578 9.7623291 17.85253906 C9.66222534 17.07233398 9.56212158 16.29212891 9.45898438 15.48828125 C9.32574768 14.47568237 9.32574768 14.47568237 9.18981934 13.44262695 C8.92008506 9.97164118 9 6.48145067 9 3 C3.06 3 -2.88 3 -9 3 C-9 38.31 -9 73.62 -9 110 C-5.7 110 -2.4 110 1 110 C1 110.99 1 111.98 1 113 C-7.4 113.32941176 -7.4 113.32941176 -11 111 C-12.21560689 106.00347672 -12.22986566 100.91308181 -12.3515625 95.796875 C-12.37471527 94.91904358 -12.39786804 94.04121216 -12.42172241 93.13677979 C-12.46918517 91.28443733 -12.5144396 89.43203713 -12.55761719 87.57958984 C-12.62445575 84.77285442 -12.70243178 81.96657764 -12.78125 79.16015625 C-12.82620089 77.35157927 -12.87049272 75.54298577 -12.9140625 73.734375 C-12.94990952 72.49479034 -12.94990952 72.49479034 -12.98648071 71.23016357 C-13.10889276 65.41942832 -12.69331479 59.76881412 -12 54 C-12.33 54 -12.66 54 -13 54 C-13.1728352 40.32681564 -13.1728352 40.32681564 -12.4375 35.5 C-11.83606264 32.15238942 -11.83606264 32.15238942 -12.484375 29.4765625 C-13.21124236 24.57571436 -13.00398938 19.81477684 -12.8125 14.875 C-12.79380859 13.88628906 -12.77511719 12.89757812 -12.75585938 11.87890625 C-12.47761676 4.66412414 -12.47761676 4.66412414 -10.109375 1.37109375 C-6.49321872 -0.97940783 -4.08416757 -1.36138919 0 0 Z " fill="#C0B2F3" transform="translate(202,112)"/>
<path d="M0 0 C3.61354375 5.42031562 3.1489496 11.4885411 3.1328125 17.79296875 C3.13424759 19.03473625 3.13424759 19.03473625 3.13571167 20.30158997 C3.13638921 22.04212521 3.13456475 23.78266304 3.13037109 25.52319336 C3.12499628 28.18934768 3.13034099 30.85533511 3.13671875 33.52148438 C3.13605829 35.2161462 3.1347778 36.91080793 3.1328125 38.60546875 C3.13483673 39.40236618 3.13686096 40.19926361 3.13894653 41.02030945 C3.12511473 44.2727066 3.03584539 46.89246382 2 50 C2.30260928 51.67251801 2.63943292 53.33901226 3 55 C3.09663306 56.73202485 3.14776237 58.46699326 3.16113281 60.20166016 C3.17074036 61.21265778 3.1803479 62.2236554 3.19024658 63.26528931 C3.19449646 64.34563446 3.19874634 65.42597961 3.203125 66.5390625 C3.20882507 67.65687103 3.21452515 68.77467957 3.22039795 69.92636108 C3.22982866 72.28488218 3.23637425 74.64341633 3.24023438 77.00195312 C3.24998307 80.61871972 3.28104246 84.23492814 3.3125 87.8515625 C3.31902616 90.14322579 3.32427815 92.43489314 3.328125 94.7265625 C3.3404718 95.81095612 3.3528186 96.89534973 3.36553955 98.01260376 C3.36253845 99.01729706 3.35953735 100.02199036 3.35644531 101.05712891 C3.36009094 101.94139557 3.36373657 102.82566223 3.36749268 103.73672485 C3 106 3 106 0 109 C0 74.02 0 39.04 0 3 C-5.61 3 -11.22 3 -17 3 C-17.10957031 4.30710937 -17.21914062 5.61421875 -17.33203125 6.9609375 C-18.1298607 16.09814804 -19.041019 25.19188908 -20.5 34.25 C-20.67752808 35.40121338 -20.67752808 35.40121338 -20.85864258 36.57568359 C-21.16701207 38.39746781 -21.5739553 40.20209138 -22 42 C-22.99 42.495 -22.99 42.495 -24 43 C-24.07427838 39.65747276 -24.06546953 37.1964086 -23 34 C-23 32.68 -23 31.36 -23 30 C-23 24 -23 24 -21 22 C-21.14953125 21.45214844 -21.2990625 20.90429688 -21.453125 20.33984375 C-22.16142711 17.30932258 -21.96514261 14.66413925 -21.75 11.5625 C-21.68296875 10.45003906 -21.6159375 9.33757812 -21.546875 8.19140625 C-20.95260448 4.7234133 -20.19655786 2.74201183 -18 0 C-11.98788236 -2.72307282 -6.03039593 -2.26139848 0 0 Z " fill="#E2C9F1" transform="translate(251,113)"/>
<path d="M0 0 C5.69961804 0.37997454 11.25259758 1.01926067 15.65234375 4.94921875 C21.63026334 12.38873237 22.06569749 20.43526445 21.9375 29.625 C21.93685547 30.52605469 21.93621094 31.42710937 21.93554688 32.35546875 C21.8909337 38.9681326 21.8909337 38.9681326 20.75 41.25 C20.09 41.25 19.43 41.25 18.75 41.25 C18.720271 40.36646851 18.720271 40.36646851 18.68994141 39.46508789 C18.59356723 36.74717649 18.48435288 34.02991897 18.375 31.3125 C18.3440625 30.38630859 18.313125 29.46011719 18.28125 28.50585938 C17.98945248 17.6297028 17.98945248 17.6297028 13.25 8.25 C9.05003033 4.89002426 5.64995445 5.00281898 0.4375 4.9375 C-0.70235352 4.89399414 -0.70235352 4.89399414 -1.86523438 4.84960938 C-5.76391981 4.80557557 -7.77553859 4.96089485 -11.1796875 7.03515625 C-13.06365768 9.05064887 -14.12747415 10.44098187 -15.0625 13 C-15.454375 14.0725 -15.84625 15.145 -16.25 16.25 C-17.24 15.92 -18.23 15.59 -19.25 15.25 C-17.35430136 8.78232229 -15.08384248 4.83525223 -9.25 1.25 C-6.08773329 0.32767221 -3.2760483 0.25200372 0 0 Z " fill="#DFA3E4" transform="translate(282.25,110.75)"/>
<path d="M0 0 C3.62502113 3.62502113 2.41193277 9.35755677 2.42553711 14.26635742 C2.43739973 16.29534916 2.48653025 18.32126327 2.53710938 20.34960938 C2.54419922 21.63287109 2.55128906 22.91613281 2.55859375 24.23828125 C2.57204834 25.41430908 2.58550293 26.59033691 2.59936523 27.80200195 C1.82669028 31.92471853 0.20986871 33.39397095 -3 36 C-5.31640625 36.6640625 -5.31640625 36.6640625 -7.5625 36.625 C-8.30628906 36.63789063 -9.05007813 36.65078125 -9.81640625 36.6640625 C-13.09714498 35.66634231 -14.13020178 33.81714976 -16 31 C-16.45410156 28.0456543 -16.45410156 28.0456543 -16.390625 24.82421875 C-16.37773437 23.66728516 -16.36484375 22.51035156 -16.3515625 21.31835938 C-16.31804687 20.12017578 -16.28453125 18.92199219 -16.25 17.6875 C-16.23195313 16.46998047 -16.21390625 15.25246094 -16.1953125 13.99804688 C-16.14825131 10.99789578 -16.0825131 7.99935111 -16 5 C-18.64 5 -21.28 5 -24 5 C-24 13.91 -24 22.82 -24 32 C-24.66 32 -25.32 32 -26 32 C-25.99476318 31.40461426 -25.98952637 30.80922852 -25.98413086 30.19580078 C-25.96338001 27.50554453 -25.95034593 24.81530511 -25.9375 22.125 C-25.92912109 21.18785156 -25.92074219 20.25070313 -25.91210938 19.28515625 C-25.90888672 18.38925781 -25.90566406 17.49335938 -25.90234375 16.5703125 C-25.89710693 15.74289551 -25.89187012 14.91547852 -25.88647461 14.06298828 C-25.86647862 11.93588243 -25.86647862 11.93588243 -27 10 C-26.34 10 -25.68 10 -25 10 C-25 8.02 -25 6.04 -25 4 C-21.33694766 3.25073929 -18.57644848 2.7619986 -15 4 C-13.65876309 7.99227549 -13.92618182 12.03522742 -14 16.1875 C-14.04567784 18.79798858 -14.04722011 21.38813791 -14 24 C-13.67 24.33 -13.34 24.66 -13 25 C-12.66666667 27.33333333 -12.33333333 29.66666667 -12 32 C-10.89471558 33.31968178 -10.89471558 33.31968178 -8.125 33.25 C-5.03830424 33.28555314 -5.03830424 33.28555314 -3.1875 31.625 C-0.8999001 28.49460014 -0.91880463 26.51890646 -1 22.6875 C-1.05506968 16.98778813 -0.71411913 11.39094841 -0.21875 5.71484375 C0.04015762 2.95555565 0.04015762 2.95555565 0 0 Z " fill="#E9C8EE" transform="translate(290,179)"/>
<path d="M0 0 C3.65863841 5.48795762 3.33476664 11.19718466 3.625 17.625 C3.70234375 19.04619141 3.70234375 19.04619141 3.78125 20.49609375 C4.24310927 30.42606801 4.53713842 39.00400865 -2 47 C-7.72412829 52.87476324 -14.84094302 52.1128755 -22.546875 52.328125 C-25.40511397 51.94581278 -26.24429145 51.22389749 -28 49 C-24.46970096 47.88063689 -21.30642809 47.99627874 -17.625 48.125 C-12.64883732 48.15289329 -9.09360132 48.12406417 -5 45 C-0.62257142 39.2155408 0.29795868 33.0639558 0.1953125 25.9765625 C0.19106766 24.85729874 0.19106766 24.85729874 0.18673706 23.71542358 C0.17561687 21.35178012 0.15052821 18.98852732 0.125 16.625 C0.11495962 15.01432842 0.10583562 13.40365085 0.09765625 11.79296875 C0.0757044 7.86183056 0.04123185 3.93098133 0 0 Z " fill="#E1A7E4" transform="translate(301,174)"/>
<path d="M0 0 C3.97245401 0.70936679 5.67231707 1.79731707 8.5 4.625 C9.80475618 7.23451236 9.61301572 9.15201285 9.59765625 12.0703125 C9.59443359 13.14667969 9.59121094 14.22304687 9.58789062 15.33203125 C9.57951172 16.45996094 9.57113281 17.58789062 9.5625 18.75 C9.55798828 19.88566406 9.55347656 21.02132812 9.54882812 22.19140625 C9.53701615 25.00265638 9.52054507 27.8138023 9.5 30.625 C12.14 30.625 14.78 30.625 17.5 30.625 C17.5 23.695 17.5 16.765 17.5 9.625 C17.83 9.625 18.16 9.625 18.5 9.625 C18.5 16.885 18.5 24.145 18.5 31.625 C15.2 31.625 11.9 31.625 8.5 31.625 C6.5 28.625 6.5 28.625 6.859375 26.4453125 C7.07078125 25.51460937 7.2821875 24.58390625 7.5 23.625 C7.64241424 20.90269708 7.73016717 18.22205579 7.75 15.5 C7.770625 14.78457031 7.79125 14.06914062 7.8125 13.33203125 C7.85263112 9.26826509 7.85263112 9.26826509 6.19921875 5.65234375 C3.33584314 3.92115344 0.75039263 4.33987784 -2.5 4.625 C-4.48 5.615 -4.48 5.615 -6.5 6.625 C-6.5 17.185 -6.5 27.745 -6.5 38.625 C-9.42921505 32.7665699 -8.9080834 27.21511473 -8.9375 20.75 C-8.97037109 19.48285156 -9.00324219 18.21570313 -9.03710938 16.91015625 C-9.09733824 6.49603829 -9.09733824 6.49603829 -6.19140625 2.78125 C-3.5 0.625 -3.5 0.625 0 0 Z " fill="#EECEEF" transform="translate(282.5,121.375)"/>
<path d="M0 0 C0 0.66 0 1.32 0 2 C-5.61 2 -11.22 2 -17 2 C-17.10957031 3.37929687 -17.21914062 4.75859375 -17.33203125 6.1796875 C-18.11335121 15.60014977 -18.99141527 24.97711297 -20.5 34.3125 C-20.61835205 35.0761084 -20.7367041 35.8397168 -20.85864258 36.62646484 C-21.1664456 38.43154695 -21.57346871 40.21923186 -22 42 C-22.99 42.495 -22.99 42.495 -24 43 C-24.07427838 39.65747276 -24.06546953 37.1964086 -23 34 C-23 32.68 -23 31.36 -23 30 C-23 24 -23 24 -21 22 C-21.14953125 21.45214844 -21.2990625 20.90429688 -21.453125 20.33984375 C-22.16142711 17.30932258 -21.96514261 14.66413925 -21.75 11.5625 C-21.68296875 10.45003906 -21.6159375 9.33757812 -21.546875 8.19140625 C-20.95260448 4.7234133 -20.19655786 2.74201183 -18 0 C-11.89924522 -2.76321931 -6.1582824 -2.0527608 0 0 Z " fill="#DDC9F3" transform="translate(251,113)"/>
<path d="M0 0 C2 1 2 1 4 4 C4.45245167 6.97494364 4.79860283 9.88264548 5.0625 12.875 C5.14483887 13.74672852 5.22717773 14.61845703 5.31201172 15.51660156 C6.1945049 25.32712972 6.62454235 35.15905728 7 45 C6.34 45 5.68 45 5 45 C4.28302044 39.55629456 3.57109573 34.11196036 2.86376953 28.66699219 C2.62263268 26.81622643 2.38013532 24.96563738 2.13623047 23.11523438 C1.78512203 20.44967643 1.43897236 17.78351336 1.09375 15.1171875 C0.9843811 14.29507782 0.87501221 13.47296814 0.7623291 12.62594604 C0.21812632 8.38362803 -0.1206371 4.28864885 0 0 Z " fill="#DBCAF4" transform="translate(211,117)"/>
<path d="M0 0 C0.33 0 0.66 0 1 0 C1.02505615 0.98170166 1.0501123 1.96340332 1.07592773 2.97485352 C1.17165266 6.69319982 1.27143715 10.41142889 1.37231445 14.12963867 C1.41505117 15.72466244 1.45675454 17.31971431 1.49731445 18.91479492 C1.7622606 29.30002958 2.21710422 39.63983926 3 50 C6.3 50 9.6 50 13 50 C13 50.99 13 51.98 13 53 C4.6 53.32941176 4.6 53.32941176 1 51 C-0.2376764 45.9394766 -0.23099575 40.76896186 -0.3515625 35.5859375 C-0.37471527 34.69387604 -0.39786804 33.80181458 -0.42172241 32.88272095 C-0.46915915 31.00520011 -0.51441638 29.12762308 -0.55761719 27.25 C-0.62494439 24.37737274 -0.70269029 21.50515198 -0.78125 18.6328125 C-0.82615052 16.80470286 -0.87044227 14.97657814 -0.9140625 13.1484375 C-0.93796051 12.29108002 -0.96185852 11.43372253 -0.98648071 10.55038452 C-1.0033493 9.74920197 -1.0202179 8.94801941 -1.03759766 8.12255859 C-1.05456696 7.42117767 -1.07153625 6.71979675 -1.08901978 5.99716187 C-0.99468027 3.88065169 -0.58060738 2.03278452 0 0 Z " fill="#B4A5F3" transform="translate(190,172)"/>
<path d="M0 0 C0.33 0 0.66 0 1 0 C1 21.78 1 43.56 1 66 C3.64 66 6.28 66 9 66 C9 66.33 9 66.66 9 67 C6.03 67 3.06 67 0 67 C-1.25664978 64.09399739 -2 62.20395416 -2 59 C-1.34 59 -0.68 59 0 59 C0 39.53 0 20.06 0 0 Z " fill="#EEE0F6" transform="translate(242,156)"/>
<path d="M0 0 C1.7015625 -0.3403125 1.7015625 -0.3403125 3.4375 -0.6875 C7 -1 7 -1 9.4375 0.9375 C9.953125 1.618125 10.46875 2.29875 11 3 C10.67 3.99 10.34 4.98 10 6 C9.67 5.01 9.34 4.02 9 3 C3.06 3 -2.88 3 -9 3 C-10.36299802 7.08899407 -10.37953909 11.09650209 -10.62109375 15.3828125 C-10.74613281 16.24648437 -10.87117187 17.11015625 -11 18 C-11.66 18.33 -12.32 18.66 -13 19 C-12.93981939 16.58073961 -12.85277783 14.16751328 -12.75 11.75 C-12.73582031 11.06808594 -12.72164062 10.38617188 -12.70703125 9.68359375 C-12.54056418 6.25437204 -12.23969284 4.30916903 -10.11328125 1.56640625 C-6.59004225 -1.04508883 -4.13007727 -1.37669242 0 0 Z " fill="#AE9DF2" transform="translate(202,112)"/>
<path d="M0 0 C0.33 0 0.66 0 1 0 C1 14.52 1 29.04 1 44 C1.66 44.33 2.32 44.66 3 45 C2.34 45.99 1.68 46.98 1 48 C1.66 48 2.32 48 3 48 C3.08096803 49.45742463 3.13917774 50.91612807 3.1875 52.375 C3.22230469 53.18710938 3.25710937 53.99921875 3.29296875 54.8359375 C3.19628906 55.55007812 3.09960938 56.26421875 3 57 C2.01 57.66 1.02 58.32 0 59 C0 39.53 0 20.06 0 0 Z " fill="#DCD0F6" transform="translate(202,163)"/>
<path d="M0 0 C0.33 0.66 0.66 1.32 1 2 C-0.16917969 2.02578125 -1.33835937 2.0515625 -2.54296875 2.078125 C-4.09118226 2.13442367 -5.6393579 2.19177062 -7.1875 2.25 C-8.34088867 2.27126953 -8.34088867 2.27126953 -9.51757812 2.29296875 C-14.5491124 2.50891443 -17.39319985 3.17460591 -21 7 C-22.18256497 8.85041705 -22.18256497 8.85041705 -22.8125 10.75 C-23.204375 11.8225 -23.59625 12.895 -24 14 C-24.99 13.67 -25.98 13.34 -27 13 C-23.87209302 3.61627907 -23.87209302 3.61627907 -20 1 C-13.4179504 -0.4104392 -6.70658668 -0.1005988 0 0 Z " fill="#DDB3EA" transform="translate(290,113)"/>
<path d="M0 0 C0 0.66 0 1.32 0 2 C-5.61 2 -11.22 2 -17 2 C-17.33 4.31 -17.66 6.62 -18 9 C-18.99 8.67 -19.98 8.34 -21 8 C-20.8125 5.1875 -20.8125 5.1875 -20 2 C-13.87189205 -3.22691561 -7.11762789 -2.1228013 0 0 Z " fill="#CAA8EC" transform="translate(251,113)"/>
<path d="M0 0 C0.33 0 0.66 0 1 0 C1.50828443 3.35296491 2.00511457 6.70753343 2.5 10.0625 C2.64308594 11.00544922 2.78617188 11.94839844 2.93359375 12.91992188 C3.67809139 18.00732242 4.17113566 22.8587994 4 28 C3.34 28 2.68 28 2 28 C1.46262405 24.64826952 0.94813202 21.29340039 0.4375 17.9375 C0.28603516 16.99455078 0.13457031 16.05160156 -0.02148438 15.08007812 C-0.82093025 9.74424167 -1.10836575 5.29226297 0 0 Z " fill="#D9CAF4" transform="translate(211,193)"/>
<path d="M0 0 C0.33 0 0.66 0 1 0 C1.19551338 1.60320974 1.38111983 3.20762986 1.5625 4.8125 C1.66691406 5.70582031 1.77132812 6.59914062 1.87890625 7.51953125 C2 10 2 10 1 13 C0.82677048 14.6223082 0.68366148 16.24797441 0.5625 17.875 C0.22631661 21.58386188 -0.31424727 24.62849454 -2 28 C-2.33 28 -2.66 28 -3 28 C-2.45462284 18.55636393 -1.46291615 9.34561968 0 0 Z " fill="#E0CCF3" transform="translate(233,191)"/>
<path d="M0 0 C1.051875 0.12375 2.10375 0.2475 3.1875 0.375 C3.1875 0.705 3.1875 1.035 3.1875 1.375 C2.094375 1.601875 1.00125 1.82875 -0.125 2.0625 C-3.8356062 3.01871673 -3.8356062 3.01871673 -5.5246582 5.51635742 C-7.10693473 9.02856137 -7.15456526 11.57988789 -7.10546875 15.42578125 C-7.10122391 16.08458786 -7.09697906 16.74339447 -7.09260559 17.42216492 C-7.07591196 19.51103885 -7.03828058 21.59892139 -7 23.6875 C-6.98494097 25.11001203 -6.97125469 26.5325393 -6.95898438 27.95507812 C-6.92604003 31.42870351 -6.87432408 34.90175487 -6.8125 38.375 C-10.09963612 32.97065573 -9.2221401 26.62298602 -9.25 20.5 C-9.28287109 19.23285156 -9.31574219 17.96570313 -9.34960938 16.66015625 C-9.4098412 6.24552633 -9.4098412 6.24552633 -6.5234375 2.515625 C-3.8125 0.375 -3.8125 0.375 0 0 Z " fill="#F0DBF3" transform="translate(282.8125,121.625)"/>
<path d="M0 0 C2 1 2 1 4 4 C4.44921875 6.77734375 4.44921875 6.77734375 4.6875 9.9375 C4.77386719 10.97777344 4.86023438 12.01804688 4.94921875 13.08984375 C4.99415079 15.66479499 4.77952037 17.567662 4 20 C3.34 20 2.68 20 2 20 C1.66131223 17.79248152 1.32928311 15.58394089 1 13.375 C0.814375 12.14523438 0.62875 10.91546875 0.4375 9.6484375 C0.04597484 6.3833973 -0.08080924 3.28287549 0 0 Z " fill="#D0BDF2" transform="translate(211,117)"/>
<path d="M0 0 C1.75 1.5625 1.75 1.5625 3 3 C2.67 3.99 2.34 4.98 2 6 C1.67 5.01 1.34 4.02 1 3 C-3.95 3 -8.9 3 -14 3 C-14 2.67 -14 2.34 -14 2 C-12.02 2 -10.04 2 -8 2 C-8 1.34 -8 0.68 -8 0 C-4.95904675 -0.97744926 -3.00367313 -1.16271218 0 0 Z " fill="#BAA4F0" transform="translate(210,112)"/>
<path d="M0 0 C0.33 0 0.66 0 1 0 C1 7.26 1 14.52 1 22 C3.64 22 6.28 22 9 22 C9 22.33 9 22.66 9 23 C6.03 23 3.06 23 0 23 C-1.25664978 20.09399739 -2 18.20395416 -2 15 C-1.34 15 -0.68 15 0 15 C0 10.05 0 5.1 0 0 Z " fill="#E5D1F3" transform="translate(242,200)"/>
<path d="M0 0 C4.29 0 8.58 0 13 0 C13.33 0.99 13.66 1.98 14 3 C12.04233719 3.08082094 10.08373272 3.13910778 8.125 3.1875 C6.48917969 3.23970703 6.48917969 3.23970703 4.8203125 3.29296875 C3.88960937 3.19628906 2.95890625 3.09960938 2 3 C1.34 2.01 0.68 1.02 0 0 Z " fill="#C6ACEF" transform="translate(216,222)"/>
<path d="M0 0 C5.94 0.66 11.88 1.32 18 2 C17.67 2.66 17.34 3.32 17 4 C14.72975032 4.08097324 12.45867925 4.13917704 10.1875 4.1875 C8.29064453 4.23970703 8.29064453 4.23970703 6.35546875 4.29296875 C3 4 3 4 1.05078125 2.55078125 C0 1 0 1 0 0 Z " fill="#DAA6E7" transform="translate(273,222)"/>
<path d="M0 0 C0.66 0 1.32 0 2 0 C2.17673419 4.5067218 2.13551182 7.96625544 0 12 C-0.99 12.495 -0.99 12.495 -2 13 C-1.85966889 11.02043559 -1.7125877 9.04134859 -1.5625 7.0625 C-1.48128906 5.96035156 -1.40007812 4.85820313 -1.31640625 3.72265625 C-1 1 -1 1 0 0 Z " fill="#D7C0F1" transform="translate(231,122)"/>
<path d="M0 0 C7.50769231 -0.36923077 7.50769231 -0.36923077 10 1.5 C10.495 2.2425 10.495 2.2425 11 3 C10.67 3.99 10.34 4.98 10 6 C9.649375 5.505 9.29875 5.01 8.9375 4.5 C6.02709013 2.24677946 3.57033034 2.74033961 0 3 C-0.99 3.495 -0.99 3.495 -2 4 C-1.34 2.68 -0.68 1.36 0 0 Z " fill="#E5BCEB" transform="translate(280,123)"/>
<path d="M0 0 C0.99 0 1.98 0 3 0 C3 4.29 3 8.58 3 13 C2.67 13 2.34 13 2 13 C1.67 10.03 1.34 7.06 1 4 C0.67 5.65 0.34 7.3 0 9 C-0.33 9 -0.66 9 -1 9 C-1.125 2.25 -1.125 2.25 0 0 Z " fill="#F1E4F6" transform="translate(241,123)"/>
<path d="M0 0 C-1.0625 1.5625 -1.0625 1.5625 -3 3 C-6.6875 2.6875 -6.6875 2.6875 -10 2 C-10 1.34 -10 0.68 -10 0 C-2.25 -1.125 -2.25 -1.125 0 0 Z " fill="#C8A0EA" transform="translate(253,223)"/>
<path d="M0 0 C2.38672669 2.96283313 4.7353371 5.94270509 7 9 C5.68 9 4.36 9 3 9 C0.43228397 5.69865082 0 4.27125508 0 0 Z " fill="#DEB9EC" transform="translate(266,213)"/>
<path d="M0 0 C1.45945288 0.08708669 2.91765868 0.19526907 4.375 0.3125 C5.59316406 0.39951172 5.59316406 0.39951172 6.8359375 0.48828125 C9 1 9 1 11 4 C9.53984709 3.71758359 8.08190207 3.42373386 6.625 3.125 C5.81289063 2.96257812 5.00078125 2.80015625 4.1640625 2.6328125 C2 2 2 2 0 0 Z " fill="#E8C5ED" transform="translate(278,173)"/>
<path d="M0 0 C0 0.33 0 0.66 0 1 C-1.0725 1.226875 -2.145 1.45375 -3.25 1.6875 C-7.37218701 3.13026545 -8.64414523 4.41910075 -11 8 C-10.64987213 5.40905378 -10.26229035 3.4225789 -8.875 1.1875 C-5.99131838 -0.63883169 -3.32254207 -0.18806842 0 0 Z " fill="#EBCEEF" transform="translate(286,122)"/>
</svg>
