
<svg xmlns="http://www.w3.org/2000/svg" width="16" height="16" viewBox="0 0 16 16" fill="none">
    <path d="M8 0C3.58 0 0 3.58 0 8C0 11.54 2.29 14.36 5.47 15.32C5.87 15.39 6.03 15.15 6.03 14.94C6.03 14.74 6.02 14.2 6.02 13.53C4 13.91 3.48 12.89 3.48 12.89C3.13 12.1 2.67 11.89 2.67 11.89C2.02 11.51 2.75 11.52 2.75 11.52C3.5 11.58 3.89 12.3 3.89 12.3C4.58 13.43 5.68 13.09 6.1 12.88C6.16 12.42 6.35 12.11 6.55 11.91C4.77 11.71 2.92 11 2.92 7.86C2.92 6.96 3.29 6.25 3.89 5.74C3.78 5.52 3.44 4.65 3.97 3.5C3.97 3.5 4.63 3.28 6.02 4.28C6.67 4.08 7.36 4 8.05 4C8.74 4 9.43 4.08 10.08 4.28C11.47 3.28 12.13 3.5 12.13 3.5C12.66 4.65 12.32 5.52 12.21 5.74C12.81 6.25 13.18 6.96 13.18 7.86C13.18 11.01 11.33 11.71 9.55 11.91C9.79 12.14 10.02 12.6 10.02 13.28C10.02 14.2 10.01 14.73 10.01 14.94C10.01 15.15 10.17 15.39 10.57 15.32C13.75 14.36 16 11.54 16 8C16 3.58 12.42 0 8 0Z" fill="white"/>
</svg>
